<svg class="svg-icon" style="width: 1em; height: 1em;vertical-align: middle;fill: currentColor;overflow: hidden;" viewBox="0 0 1024 1024" version="1.1" xmlns="http://www.w3.org/2000/svg"><path d="M512.106424 1023.689938c-5.878894 0-11.756765-1.719154-16.841573-5.143137-16.518209-11.154038-404.490427-276.195459-413.160901-559.546899C78.165244 329.998853 119.812783 216.721927 202.551182 131.412982 283.291065 48.145533 396.125923 0.38374 512.106424 0.38374s228.815359 47.761794 309.555242 131.029242c82.738399 85.309968 124.385938 198.585871 120.448256 327.58692-8.670473 283.352463-396.642692 548.392862-413.160901 559.546899C523.863189 1021.970784 517.984295 1023.689938 512.106424 1023.689938zM512.106424 60.57768c-99.785657 0-196.866716 41.089837-266.349207 112.746854-71.127967 73.347518-106.927311 171.486676-103.459327 283.822161 6.759961 221.540675 296.211329 446.00596 369.808534 499.543294 73.597205-53.537334 363.04755-278.002618 369.808534-499.543294 3.467985-112.335485-32.331359-210.474642-103.459327-283.822161C708.97314 101.667517 611.891058 60.57768 512.106424 60.57768z"  /><path d="M512.664126 585.678046c-88.675622 0-160.802336-72.142064-160.802336-160.817686 0-88.660272 72.127737-160.802336 160.802336-160.802336s160.832012 72.142064 160.832012 160.802336C673.497161 513.535983 601.339748 585.678046 512.664126 585.678046zM512.664126 324.251965c-55.462173 0-100.608396 45.130873-100.608396 100.608396s45.146223 100.622722 100.608396 100.622722c55.491849 0 100.638071-45.146223 100.638071-100.622722S568.155974 324.251965 512.664126 324.251965z"  /></svg>