<svg class="svg-icon" style="width: 1em; height: 1em;vertical-align: middle;fill: currentColor;overflow: hidden;" viewBox="0 0 1024 1024" version="1.1" xmlns="http://www.w3.org/2000/svg"><path d="M512 1024c-6.4 0-12.8 0-12.8-6.4-19.2-12.8-428.8-236.8-428.8-576C70.4 198.4 268.8 0 512 0s441.6 198.4 441.6 441.6c0 332.8-409.6 563.2-428.8 576C524.8 1024 518.4 1024 512 1024zM512 64C300.8 64 134.4 236.8 134.4 441.6c0 262.4 307.2 467.2 377.6 512 70.4-44.8 377.6-249.6 377.6-512C889.6 236.8 723.2 64 512 64zM512 640c-108.8 0-198.4-89.6-198.4-198.4S403.2 249.6 512 249.6s198.4 89.6 198.4 198.4S620.8 640 512 640zM512 313.6c-70.4 0-134.4 57.6-134.4 134.4S441.6 576 512 576s134.4-57.6 134.4-134.4S582.4 313.6 512 313.6z"  /></svg>